<?xml version="1.0" encoding="utf-8"?>
<!-- Generator: Adobe Illustrator 27.9.3, SVG Export Plug-In . SVG Version: 9.03 Build 53313)  -->
<svg version="1.1" id="Layer_1" xmlns="http://www.w3.org/2000/svg" xmlns:xlink="http://www.w3.org/1999/xlink" x="0px" y="0px"
	 viewBox="0 0 200 200" style="enable-background:new 0 0 200 200;" xml:space="preserve">
<g>
	<path d="M90.1,21.9l11.7-4c-1.8,4.5-4.5,10.8-7.8,19c-3.4,8.1-7.1,17.1-11.1,27c-4,9.9-8.1,19.9-12.3,30.2s-8.2,20-11.9,29.1
		c-3.7,9.2-6.9,17.1-9.6,23.7c-2.7,6.7-4.5,11.3-5.5,13.7c-3.1,7.6-5.6,14.8-7.7,21.7c-2.1,6.9-3.6,12.7-4.6,17.4L31,200h-0.3
		c-3.7-0.2-7.2-0.3-10.5-0.3s-6.8,0.1-10.5,0.3H9.4v-0.3c2.7-5.1,6.5-13.3,11.4-24.4c4.9-11.1,10.5-23.9,16.6-38.4
		c6.2-14.5,12.4-29.3,18.8-44.5c3.5-8.4,7-16.7,10.5-25c3.5-8.2,6.9-16.3,10.2-24.3c3.3-8,6.5-15.7,9.6-23c3.1-7.3,5.8-14,8.3-20.2
		c0.2,0,0.4,0,0.6,0c1.7,0,3.4,0,5.2,0c1.9,0,3.6,0,5.2,0h0.3h0.3c4.9,12.9,11,28.1,18.2,45.3c7.2,17.3,14.4,34.7,21.6,52.4
		c5.3,12.7,10.7,25.5,16,38.4s10.5,24.7,15.4,35.6c4.9,10.9,9.3,20.1,12.9,27.7c0,0.2,0,0.4,0,0.5s-0.1,0.2-0.3,0.2
		c-5.1-0.2-10.2-0.3-15.1-0.2c-4.9,0.1-10.2,0.2-15.7,0.2c-0.2,0-0.3-0.1-0.3-0.2s-0.1-0.5-0.3-1.1c-2.1-10.3-6.3-23.2-12.8-38.8
		c-6.5-15.6-13.3-32.4-20.5-50.2C119.8,95.1,114,80.4,108,65.7C102,50.9,96.1,36.3,90.1,21.9z M53.8,118.6l6.8-5.5l2.2,2.8l-5.2,5.9
		L53.8,118.6z M128.4,105.4l3.1,12c-12.1-0.2-24.3-0.3-36.4-0.3s-24.3,0.1-36.4,0.3l4.9-12c10.9,0.2,21.7,0.3,32.5,0.3
		S117.7,105.6,128.4,105.4z M59,105.7l3.7-2.5l2.2,5.8l-2.5,2.2L59,105.7z M90.8,26.2l12,0.9v5.5H90.5L90.8,26.2z M134.8,105.4
		l-6.8,5.5l-4.9-1.9l5.2-5.8L134.8,105.4z M137.3,116.2l-4.3,4.3l-4.9-5.9l2.8-4L137.3,116.2z"/>
</g>
</svg>
